<svg width="7" height="12" viewBox="0 0 7 12" fill="none" xmlns="http://www.w3.org/2000/svg">
<path fill-rule="evenodd" clip-rule="evenodd" d="M5.09439 9.54622C5.17668 9.54622 5.28705 9.52794 5.4059 9.50965C5.53456 9.49137 5.57113 9.49137 5.63513 9.49137C6.13015 9.49137 6.3868 9.85773 6.3868 10.243C6.3868 10.5546 6.20394 10.8203 5.91072 10.9764C5.64427 11.1136 5.30533 11.1965 4.94745 11.1965C2.8668 11.1965 2.40835 9.90345 2.40835 8.37267V4.65022H1.76639C1.01472 4.65022 0.886719 4.11863 0.886719 3.85284C0.886719 3.58704 1.01472 3.05545 1.76639 3.05545H2.40835V1.6801C2.40835 0.763204 3.05031 0.598633 3.37096 0.598633C3.70076 0.598633 4.33358 0.763204 4.33358 1.6801V3.05545H5.56198C6.31366 3.05545 6.44166 3.58704 6.44166 3.85284C6.44166 4.11863 6.31366 4.65022 5.56198 4.65022H4.33358V8.35439C4.34272 9.13349 4.60851 9.54622 5.09439 9.54622Z" fill="white"/>
</svg>
